<mxfile host="app.diagrams.net" modified="2023-06-19T03:00:53.875Z" agent="Mozilla/5.0 (Windows NT 10.0; Win64; x64) AppleWebKit/537.36 (KHTML, like Gecko) Chrome/114.0.0.0 Safari/537.36" etag="AwBC71fexRx_FAKrVmd7" version="21.4.0" type="github">
  <diagram name="Page-1" id="bhDMWvnnnsmSmIuoPUf2">
    <mxGraphModel dx="1155" dy="561" grid="1" gridSize="10" guides="1" tooltips="1" connect="1" arrows="1" fold="1" page="1" pageScale="1" pageWidth="850" pageHeight="1100" math="0" shadow="0">
      <root>
        <mxCell id="0" />
        <mxCell id="1" parent="0" />
        <mxCell id="DNya7Jkh1skZqDEUOs5Z-2" value="TOC0_CONST_TOTAL_SEQUENCE" style="rounded=0;whiteSpace=wrap;html=1;" parent="1" vertex="1">
          <mxGeometry x="160" y="80" width="230" height="30" as="geometry" />
        </mxCell>
        <mxCell id="DNya7Jkh1skZqDEUOs5Z-3" value="TOC0_CONST_MAIN_SEQUENCE" style="rounded=0;whiteSpace=wrap;html=1;" parent="1" vertex="1">
          <mxGeometry x="160" y="110" width="230" height="30" as="geometry" />
        </mxCell>
        <mxCell id="DNya7Jkh1skZqDEUOs5Z-4" value="TOC0_CONST_VERSION" style="rounded=0;whiteSpace=wrap;html=1;" parent="1" vertex="1">
          <mxGeometry x="160" y="140" width="230" height="30" as="geometry" />
        </mxCell>
        <mxCell id="DNya7Jkh1skZqDEUOs5Z-5" value="TOC0_CONST_SERIAL" style="rounded=0;whiteSpace=wrap;html=1;" parent="1" vertex="1">
          <mxGeometry x="160" y="170" width="230" height="30" as="geometry" />
        </mxCell>
        <mxCell id="DNya7Jkh1skZqDEUOs5Z-6" value="TOC0_CONST_ALGORITHM_OID" style="rounded=0;whiteSpace=wrap;html=1;" parent="1" vertex="1">
          <mxGeometry x="160" y="200" width="230" height="30" as="geometry" />
        </mxCell>
        <mxCell id="DNya7Jkh1skZqDEUOs5Z-7" value="TOC0_CONST_ISSUER_NAME" style="rounded=0;whiteSpace=wrap;html=1;" parent="1" vertex="1">
          <mxGeometry x="160" y="230" width="230" height="30" as="geometry" />
        </mxCell>
        <mxCell id="DNya7Jkh1skZqDEUOs5Z-8" value="TOC0_CONST_VALIDE_PERIOD" style="rounded=0;whiteSpace=wrap;html=1;" parent="1" vertex="1">
          <mxGeometry x="160" y="260" width="230" height="30" as="geometry" />
        </mxCell>
        <mxCell id="DNya7Jkh1skZqDEUOs5Z-9" value="TOC0_CONST_SUBJECT_NAME" style="rounded=0;whiteSpace=wrap;html=1;" parent="1" vertex="1">
          <mxGeometry x="160" y="290" width="230" height="30" as="geometry" />
        </mxCell>
        <mxCell id="DNya7Jkh1skZqDEUOs5Z-10" value="public key" style="rounded=0;whiteSpace=wrap;html=1;" parent="1" vertex="1">
          <mxGeometry x="160" y="320" width="230" height="30" as="geometry" />
        </mxCell>
        <mxCell id="DNya7Jkh1skZqDEUOs5Z-11" value="extension sboot hash value" style="rounded=0;whiteSpace=wrap;html=1;" parent="1" vertex="1">
          <mxGeometry x="160" y="350" width="230" height="30" as="geometry" />
        </mxCell>
        <mxCell id="DNya7Jkh1skZqDEUOs5Z-12" value="Dummy data(sizeof(4))" style="rounded=0;whiteSpace=wrap;html=1;" parent="1" vertex="1">
          <mxGeometry x="160" y="380" width="230" height="30" as="geometry" />
        </mxCell>
        <mxCell id="DNya7Jkh1skZqDEUOs5Z-13" value="TOC0_CONST_SIGNATURE_SEQUENCE" style="rounded=0;whiteSpace=wrap;html=1;" parent="1" vertex="1">
          <mxGeometry x="160" y="410" width="230" height="30" as="geometry" />
        </mxCell>
        <mxCell id="DNya7Jkh1skZqDEUOs5Z-14" value="TOC0_CONST_SIGNATURE_OID" style="rounded=0;whiteSpace=wrap;html=1;" parent="1" vertex="1">
          <mxGeometry x="160" y="440" width="230" height="30" as="geometry" />
        </mxCell>
        <mxCell id="DNya7Jkh1skZqDEUOs5Z-15" value="TOC0_CONST_SIGNATURE_VALUE_HEAD" style="rounded=0;whiteSpace=wrap;html=1;" parent="1" vertex="1">
          <mxGeometry x="160" y="470" width="230" height="30" as="geometry" />
        </mxCell>
        <mxCell id="DNya7Jkh1skZqDEUOs5Z-16" value="" style="shape=curlyBracket;whiteSpace=wrap;html=1;rounded=1;flipH=1;labelPosition=right;verticalLabelPosition=middle;align=left;verticalAlign=middle;" parent="1" vertex="1">
          <mxGeometry x="405" y="110" width="20" height="270" as="geometry" />
        </mxCell>
        <mxCell id="DNya7Jkh1skZqDEUOs5Z-17" value="cert_main_part_len&lt;br&gt;" style="text;html=1;strokeColor=none;fillColor=none;align=center;verticalAlign=middle;whiteSpace=wrap;rounded=0;" parent="1" vertex="1">
          <mxGeometry x="430" y="230" width="150" height="30" as="geometry" />
        </mxCell>
        <mxCell id="DNya7Jkh1skZqDEUOs5Z-18" value="Signature data" style="rounded=0;whiteSpace=wrap;html=1;" parent="1" vertex="1">
          <mxGeometry x="160" y="500" width="230" height="30" as="geometry" />
        </mxCell>
        <mxCell id="DNya7Jkh1skZqDEUOs5Z-20" value="" style="shape=curlyBracket;whiteSpace=wrap;html=1;rounded=1;flipH=1;labelPosition=right;verticalLabelPosition=middle;align=left;verticalAlign=middle;" parent="1" vertex="1">
          <mxGeometry x="630" y="110" width="20" height="420" as="geometry" />
        </mxCell>
        <mxCell id="DNya7Jkh1skZqDEUOs5Z-21" value="cert_all_part_en" style="text;html=1;strokeColor=none;fillColor=none;align=center;verticalAlign=middle;whiteSpace=wrap;rounded=0;" parent="1" vertex="1">
          <mxGeometry x="680" y="320" width="140" height="30" as="geometry" />
        </mxCell>
        <mxCell id="muws-hIvyTuD5fBIdDaZ-3" value="item1(certif)" style="rounded=0;whiteSpace=wrap;html=1;" vertex="1" parent="1">
          <mxGeometry x="210" y="670" width="120" height="30" as="geometry" />
        </mxCell>
        <mxCell id="muws-hIvyTuD5fBIdDaZ-4" value="item2(sboot)" style="rounded=0;whiteSpace=wrap;html=1;" vertex="1" parent="1">
          <mxGeometry x="210" y="700" width="120" height="30" as="geometry" />
        </mxCell>
        <mxCell id="muws-hIvyTuD5fBIdDaZ-5" value="Toc0 certif" style="rounded=0;whiteSpace=wrap;html=1;" vertex="1" parent="1">
          <mxGeometry x="210" y="730" width="120" height="30" as="geometry" />
        </mxCell>
        <mxCell id="muws-hIvyTuD5fBIdDaZ-6" value="Sboot" style="rounded=0;whiteSpace=wrap;html=1;" vertex="1" parent="1">
          <mxGeometry x="210" y="760" width="120" height="30" as="geometry" />
        </mxCell>
        <mxCell id="muws-hIvyTuD5fBIdDaZ-7" value="" style="endArrow=classic;html=1;rounded=0;" edge="1" parent="1">
          <mxGeometry width="50" height="50" relative="1" as="geometry">
            <mxPoint x="140" y="730" as="sourcePoint" />
            <mxPoint x="200" y="730" as="targetPoint" />
          </mxGeometry>
        </mxCell>
        <mxCell id="muws-hIvyTuD5fBIdDaZ-8" value="0xF80" style="text;html=1;strokeColor=none;fillColor=none;align=center;verticalAlign=middle;whiteSpace=wrap;rounded=0;" vertex="1" parent="1">
          <mxGeometry x="100" y="710" width="60" height="30" as="geometry" />
        </mxCell>
        <mxCell id="muws-hIvyTuD5fBIdDaZ-9" value="" style="endArrow=classic;html=1;rounded=0;" edge="1" parent="1">
          <mxGeometry width="50" height="50" relative="1" as="geometry">
            <mxPoint x="140" y="760" as="sourcePoint" />
            <mxPoint x="200" y="759" as="targetPoint" />
            <Array as="points">
              <mxPoint x="160" y="760" />
            </Array>
          </mxGeometry>
        </mxCell>
        <mxCell id="muws-hIvyTuD5fBIdDaZ-10" value="0x1480" style="text;html=1;strokeColor=none;fillColor=none;align=center;verticalAlign=middle;whiteSpace=wrap;rounded=0;" vertex="1" parent="1">
          <mxGeometry x="100" y="740" width="60" height="30" as="geometry" />
        </mxCell>
        <mxCell id="muws-hIvyTuD5fBIdDaZ-11" value="TOCO&amp;nbsp; HEAD" style="rounded=0;whiteSpace=wrap;html=1;" vertex="1" parent="1">
          <mxGeometry x="210" y="640" width="120" height="30" as="geometry" />
        </mxCell>
      </root>
    </mxGraphModel>
  </diagram>
</mxfile>
